# xmcd
#
# Track frame offsets:
#	150
#	12188
#	25130
#	37805
#	47007
#	58435
#	68181
#	79930
#	91355
#	105398
#	121933
#	132535
#	152369
#	165168
#	178093
#	189419
#	200288
#	211825
#	220939
#	233249
#	242860
#	254091
#	262945
#
# Disc length: 3650 seconds
#
# Revision: 0
# Processed by: cddbd v1.5.2PL0 Copyright (c) Steve Scherf et al.
# Submitted via: EasyCDDAExtractor 10.0.2.1
#
DISCID=380e4017
DTITLE=Various Artist - Moon River/Delicious Together
DYEAR=1900
DGENRE=Blues
TTITLE0=Jerry Butler - Moon River
TTITLE1=Jerry Butler - Someone To Watch Over Me
TTITLE2=Jerry Butler - Smoke Get In Your Eyes
TTITLE3=Jerry Butler - Rainbow Valley
TTITLE4=Jerry Butler - Where Do I Turn
TTITLE5=Jerry Butler - I Found A Love
TTITLE6=Jerry Butler - Couldn't Go To Sleep
TTITLE7=Jerry Butler - Buterfly
TTITLE8=Jerry Butler - The Challenge
TTITLE9=Jerry Butler - No End Or Time
TTITLE10=Jerry Butler - Lost Without You
TTITLE11=Jerry Butler - September Song
TTITLE12=Jerry Butler w/Betty Everett - Let It Be Me
TTITLE13=Jerry Butler w/Betty Everett - Love Is Strange
TTITLE14=Jerry Butler w/Betty Everett - Just Be True 
TTITLE15=Jerry Butler w/Betty Everett - Since I Don't Have You
TTITLE16=Jerry Butler w/Betty Everett - It's All Right
TTITLE17=Jerry Butler w/Betty Everett - Out Day Will Come
TTITLE18=Jerry Butler w/Betty Everett - Ain't That Loving You Baby
TTITLE19=Jerry Butler w/Betty Everett - I Can't Stand It
TTITLE20=Jerry Butler w/Betty Everett - The Way You Do The Things You Do
TTITLE21=Jerry Butler w/Betty Everett - Let The Good Times Roll
TTITLE22=Jerry Butler w/Betty Everett - Fever
EXTD=
EXTT0=
EXTT1=
EXTT2=
EXTT3=
EXTT4=
EXTT5=
EXTT6=
EXTT7=
EXTT8=
EXTT9=
EXTT10=
EXTT11=
EXTT12=
EXTT13=
EXTT14=
EXTT15=
EXTT16=
EXTT17=
EXTT18=
EXTT19=
EXTT20=
EXTT21=
EXTT22=
PLAYORDER=
